<svg version="1" xmlns="http://www.w3.org/2000/svg" width="682.667" height="682.667" viewBox="0 0 512.000000 512.000000"><path d="M61.4 252L15.3 372h22.2l46-119.1c25.3-65.6 46.2-119.5 46.3-120 .2-.5-4.7-.9-11-.9h-11.3L61.4 252zM421.4 252l-46.1 120h22.2l46-119.1c25.3-65.6 46.2-119.5 46.3-120 .2-.5-4.7-.9-11-.9h-11.3l-46.1 120zM244 176.6v33.7l-5.2-5.2c-18.8-18.8-52.3-16.8-73 4.4-15.3 15.7-21.5 48.2-14.8 77.1 2.4 10.3 5.8 18 11.6 26.1 18.9 26.4 57.6 31 77.8 9.2l5.6-6V333h21V214.3l32.3-.5c17.7-.3 32.3-.4 32.5-.2.2.1-9.3 10.5-21.2 23.1L289 259.5V279.8l12.8.4c14.5.6 20.5 2.3 28.6 8.5 9.3 7.2 14.1 16.8 15.2 30.8 1.6 19.5-8.5 38.9-24.4 46.7-6.4 3.2-7.1 3.3-18.2 3.2-9.5 0-12.5-.4-17.1-2.2-6.3-2.5-14.2-8.9-16.5-13.3l-1.5-2.9h-22.1l.6 3.2c2.1 10.5 11 20.5 23.8 26.7 10.2 5 17.5 6.9 29.2 7.7 30.9 2 58-16.2 67.2-45 3.5-11 4.4-27.1 2-38-5.1-22.9-22-39.4-45.1-44.1-4.4-.9-8-1.7-8.1-1.8-.1-.1 10.6-11.5 23.7-25.2l23.9-25V195h-96v-52h-23v33.6zm-20.5 37.6c13.9 7.1 21.1 22.4 22.2 46.8 1.2 26.3-6.3 45-21.1 52.8-4.5 2.4-6.2 2.7-15.1 2.7-9.2 0-10.4-.2-15.4-3-9.3-5.1-16-14.9-19.9-28.7-1.3-4.7-1.7-10.1-1.7-21.8 0-13.5.3-16.5 2.4-23 2.8-9.2 4.4-12.3 8.7-17.7 6.7-8.2 14.4-11.5 26.4-11 6.7.3 9.5.9 13.5 2.9z"/></svg>